<svg width="115" height="109" viewBox="0 0 115 109" fill="none" xmlns="http://www.w3.org/2000/svg">
<g id="gronflag">
<path id="Vector" d="M17.2507 99.143C17.5974 99.013 17.901 98.7625 18.0926 98.4112L62.4177 17.3992C62.8434 16.6217 62.5593 15.6451 61.7832 15.219C61.0077 14.7922 60.0336 15.0763 59.6079 15.855L15.2822 96.867C14.8565 97.6445 15.1405 98.6211 15.9167 99.0473C16.3424 99.2813 16.8282 99.3016 17.2495 99.143H17.2507Z" fill="#C1B49A"/>
<path id="Vector_2" d="M40.684 50.4264C64.2444 44.1431 63.2988 82.3011 86.8592 76.0179C92.5319 65.7305 98.2045 55.4432 103.877 45.1559C80.3168 51.4391 81.2624 13.2811 57.702 19.5643C52.0293 29.8517 46.3566 40.139 40.684 50.4264Z" fill="#1DA1D5"/>
</g>
</svg>
