<svg width="115" height="110" viewBox="0 0 115 110" fill="none" xmlns="http://www.w3.org/2000/svg">
<g id="gronflag">
<path id="Vector" d="M17.2507 99.643C17.5974 99.513 17.901 99.2625 18.0926 98.9112L62.4177 17.8992C62.8434 17.1217 62.5593 16.1451 61.7832 15.719C61.0077 15.2922 60.0336 15.5763 59.6079 16.355L15.2822 97.367C14.8565 98.1445 15.1405 99.1211 15.9167 99.5473C16.3424 99.7813 16.8282 99.8016 17.2495 99.643H17.2507Z" fill="#C1B49A"/>
<path id="Vector_2" d="M40.684 50.9264C64.2444 44.6431 63.2988 82.8011 86.8592 76.5179C92.5319 66.2305 98.2045 55.9432 103.877 45.6559C80.3168 51.9391 81.2624 13.7811 57.702 20.0643C52.0293 30.3517 46.3566 40.639 40.684 50.9264Z" fill="#1A9109"/>
</g>
</svg>
