<svg width="118" height="111" viewBox="0 0 118 111" fill="none" xmlns="http://www.w3.org/2000/svg">
<g id="Group 18">
<path id="Vector" d="M3.68191 110.824C4.13937 110.654 4.54007 110.325 4.79301 109.864L63.2904 3.61959C63.8522 2.59995 63.4774 1.31916 62.4532 0.760275C61.4297 0.200553 60.1441 0.573146 59.5823 1.59445L1.0849 107.839C0.52309 108.859 0.897911 110.14 1.92219 110.699C2.484 111.005 3.12511 111.032 3.68107 110.824H3.68191Z" fill="#C1B49A"/>
<path id="Vector_2" d="M34.6027 46.935C65.6958 38.6947 64.4478 88.7378 95.541 80.4975C103.027 67.006 110.514 53.5144 118 40.0229C86.9068 48.2632 88.1548 -1.77995 57.0617 6.46035C49.5753 19.9519 42.089 33.4435 34.6027 46.935Z" fill="#E0E04C"/>
</g>
</svg>
