<svg width="118" height="112" viewBox="0 0 118 112" fill="none" xmlns="http://www.w3.org/2000/svg">
<g id="sort-hvidflag 1" clip-path="url(#clip0_683_11235)">
<g id="OBJECTS">
<g id="Group">
<path id="Vector" d="M2.87531 111.863C3.33564 111.69 3.73885 111.357 3.99337 110.89L62.8581 3.16312C63.4235 2.12925 63.0463 0.830593 62.0156 0.263906C60.9857 -0.303625 59.6921 0.0741668 59.1267 1.10972L0.26199 108.837C-0.303349 109.871 0.0738258 111.169 1.10453 111.736C1.66987 112.047 2.31501 112.074 2.87446 111.863H2.87531Z" fill="#C1B49A"/>
<path id="Vector_2" d="M33.9949 47.0816C65.2833 38.7263 64.0274 89.4676 95.3158 81.1123C102.849 67.4334 110.383 53.7536 117.915 40.0739C86.6275 48.4291 87.8825 -2.313 56.594 6.04227C49.0607 19.722 41.5274 33.4018 33.994 47.0816H33.9949Z" fill="white" stroke="black" stroke-miterlimit="10"/>
</g>
</g>
<g id="DESIGNED BY FREEPIK">
<path id="Vector_3" d="M117.915 40.0735C115.02 40.8215 111.415 41.5813 106.668 40.4707C100.414 39.0076 96.4969 34.5677 91.9818 29.1496C85.3204 21.157 85.3599 18.1372 79.6166 12.6997C73.4114 6.82534 69.0138 5.55619 67.6547 5.24502C63.0429 4.19007 58.8806 5.36224 56.5949 6.04192C57.1468 17.7003 59.7139 22.6757 63.0841 26.9959C67.3548 32.4688 71.8262 32.9452 75.9558 39.8644C79.4873 45.7817 81.2471 53.6116 82.0813 57.8432C83.4354 64.7134 83.243 67.503 85.3069 71.3358C88.1504 76.6181 91.5147 79.4591 95.3167 81.112C102.685 67.5148 110.898 53.7777 117.915 40.0735Z" fill="black"/>
</g>
</g>
<defs>
<clipPath id="clip0_683_11235">
<rect width="118" height="112" fill="white" transform="matrix(-1 0 0 1 118 0)"/>
</clipPath>
</defs>
</svg>
