<svg width="76" height="76" viewBox="0 0 76 76" fill="none" xmlns="http://www.w3.org/2000/svg">
<circle cx="38" cy="38" r="38" fill="#CD1F4D"/>
<path d="M50.1667 34.3725V14H26V34.3725C26 35.2183 26.435 36.0158 27.1842 36.4508L37.2858 42.5167L34.8933 48.1717L26.6525 48.8725L32.9117 54.2858L31.0025 62.3333L38.0833 58.0558L45.1642 62.3333L43.2792 54.2858L49.5383 48.8725L41.2975 48.1717L38.905 42.5167L49.0067 36.4508C49.7317 36.0158 50.1667 35.2425 50.1667 34.3725ZM35.6667 35.9192L30.8333 33.0192V18.8333H35.6667V35.9192ZM45.3333 33.0192L40.5 35.9192V18.8333H45.3333V33.0192Z" fill="white"/>
</svg>
