<svg width="146" height="146" viewBox="0 0 146 146" fill="none" xmlns="http://www.w3.org/2000/svg">
<path d="M58.7417 108.776C59.3578 108.96 59.6498 109.354 59.3928 109.646C59.133 109.941 59.241 110.461 59.6323 110.805C60.0236 111.15 60.6806 111.042 61.0981 110.569C61.5128 110.096 63.3203 110.148 65.1102 110.686L72.6934 112.96C74.4834 113.498 77.418 113.509 79.2138 112.984L87.4161 110.586C89.2119 110.061 91.0544 110.04 91.5129 110.537C91.9713 111.036 92.6604 111.156 93.0429 110.802C93.4255 110.449 93.5043 109.909 93.2211 109.602C92.9349 109.293 93.1656 108.904 93.7262 108.741C94.2898 108.577 94.5117 107.625 94.2197 106.63C93.9277 105.634 92.8239 105.07 91.7669 105.38C90.7099 105.689 88.8089 104.816 87.5417 103.441L78.2444 93.3437C76.9771 91.9684 74.9302 91.9917 73.695 93.3962L64.8562 103.441C63.621 104.846 61.7318 105.73 60.6601 105.409C59.5856 105.088 58.4643 105.637 58.1665 106.633C57.8686 107.628 58.1285 108.592 58.7446 108.779L58.7417 108.776ZM73.7242 96.217C74.9594 94.8124 77.0063 94.7891 78.2736 96.1644L85.5181 104.031C86.7854 105.406 86.3532 106.96 84.5574 107.485L79.2255 109.045C77.4326 109.57 74.498 109.558 72.7051 109.021L67.8521 107.564C66.0621 107.027 65.6066 105.438 66.8418 104.034L73.7242 96.214L73.7242 96.217Z" fill="#1A1A1A"/>
<path opacity="0.3" d="M75.9872 93.0809C76.6237 93.0809 77.2252 93.3554 77.6837 93.8547L86.981 103.952C88.1986 105.275 89.9681 106.198 91.288 106.198C91.5332 106.198 91.7639 106.165 91.9742 106.104C92.0968 106.069 92.2253 106.049 92.3508 106.049C92.8852 106.049 93.3524 106.376 93.4896 106.84C93.6736 107.465 93.5597 107.915 93.475 108.025C92.9027 108.204 92.5027 108.563 92.3771 109.018C92.2749 109.389 92.3654 109.775 92.6282 110.078C92.6224 110.113 92.599 110.18 92.526 110.248C92.5231 110.248 92.5085 110.251 92.4881 110.251C92.3888 110.251 92.2194 110.192 92.0676 110.026C91.6938 109.62 91.031 109.421 90.0382 109.421C89.1768 109.421 88.1694 109.576 87.2 109.859L78.9977 112.257C78.2122 112.487 77.1493 112.613 76.0047 112.613C74.86 112.613 73.7096 112.476 72.9095 112.236L65.3262 109.961C64.3276 109.661 63.2618 109.488 62.4062 109.488C61.4864 109.488 60.8703 109.678 60.5287 110.067C60.4119 110.201 60.2717 110.248 60.19 110.248C60.1637 110.248 60.1403 110.242 60.1316 110.233C60.0644 110.175 60.0294 110.113 60.0177 110.072C60.2308 109.792 60.298 109.445 60.2016 109.109C60.0644 108.63 59.6118 108.242 58.9606 108.046C58.873 107.996 58.6803 107.535 58.8876 106.84C59.0278 106.376 59.4892 106.063 60.0352 106.063C60.1724 106.063 60.3068 106.084 60.4411 106.125C60.6572 106.189 60.8966 106.224 61.1477 106.224C62.4792 106.224 64.2342 105.284 65.4226 103.935L74.2614 93.8898C74.7228 93.3671 75.336 93.078 75.9901 93.078L75.9872 93.0809ZM76.0193 110.189C77.3041 110.189 78.5159 110.04 79.4357 109.772L84.7676 108.212C85.8801 107.888 86.6598 107.185 86.9109 106.279C87.162 105.377 86.8554 104.37 86.0699 103.52L78.8254 95.6534C78.0779 94.8417 77.0792 94.392 76.0164 94.392C74.9535 94.392 73.9052 94.8621 73.1548 95.7177L66.2723 103.537C65.5102 104.405 65.224 105.424 65.4839 106.335C65.7438 107.246 66.5293 107.958 67.633 108.291L72.4861 109.748C73.4351 110.034 74.6907 110.189 76.0164 110.189L76.0193 110.189Z" fill="#333333"/>
<path d="M93.6414 26.0551C93.0253 25.8712 92.7333 25.477 92.9903 25.185C93.2501 24.89 93.1421 24.3703 92.7508 24.0257C92.3595 23.6841 91.7025 23.7892 91.285 24.2622C90.8674 24.7353 89.0629 24.6827 87.2729 24.1454L79.6897 21.8678C77.8997 21.3306 74.9651 21.3189 73.1693 21.8445L64.967 24.2418C63.1712 24.7674 61.3287 24.7878 60.8703 24.2914C60.4118 23.7921 59.7227 23.6724 59.3402 24.0257C58.9577 24.379 58.8788 24.9192 59.162 25.2258C59.4482 25.5354 59.2205 25.9237 58.6569 26.0872C58.0933 26.2507 57.8714 27.2027 58.1634 28.2013C58.4554 29.197 59.5592 29.7606 60.6162 29.4511C61.6733 29.1415 63.5742 30.0146 64.8415 31.3899L74.1387 41.4873C75.406 42.8626 77.4529 42.8393 78.6881 41.4347L87.5269 31.39C88.7621 29.9854 90.6513 29.1007 91.723 29.4219C92.7946 29.7431 93.9188 29.1941 94.2167 28.1984C94.5145 27.2027 94.2546 26.2362 93.6385 26.0522L93.6414 26.0551ZM78.6589 38.614C77.4237 40.0185 75.3768 40.0419 74.1095 38.6666L66.865 30.8001C65.5977 29.4248 66.0299 27.8713 67.8257 27.3457L73.1576 25.7865C74.9505 25.2609 77.8851 25.2726 79.678 25.8098L84.531 27.2669C86.321 27.8042 86.7765 29.3927 85.5413 30.7972L78.6618 38.6169L78.6589 38.614Z" fill="#1A1A1A"/>
<path opacity="0.3" d="M76.393 41.75C75.7564 41.75 75.1549 41.4755 74.6965 40.9762L65.3992 30.8789C64.1815 29.5561 62.412 28.6334 61.0951 28.6334C60.8498 28.6334 60.6191 28.6655 60.4089 28.7268C60.2863 28.7619 60.1578 28.7823 60.0322 28.7823C59.4979 28.7823 59.0307 28.4553 58.8934 27.991C58.7095 27.3661 58.8233 26.9164 58.908 26.8055C59.4803 26.6273 59.8804 26.2682 60.0059 25.8127C60.1081 25.4418 60.0176 25.0564 59.7548 24.7527C59.7607 24.7177 59.784 24.6534 59.857 24.5833C59.8599 24.5833 59.8745 24.5833 59.895 24.5804C59.9943 24.5804 60.1636 24.6388 60.3155 24.8053C60.6892 25.2111 61.3521 25.4097 62.3449 25.4097C63.2063 25.4097 64.2137 25.2549 65.1831 24.9717L73.3854 22.5744C74.1709 22.3437 75.2337 22.2181 76.3784 22.2181C77.523 22.2181 78.6735 22.3554 79.4736 22.5978L87.0568 24.8724C88.0555 25.1732 89.1213 25.3455 89.9768 25.3455C90.8966 25.3455 91.5127 25.1557 91.8544 24.7673C91.9712 24.633 92.1113 24.5863 92.1931 24.5863C92.2194 24.5863 92.2427 24.5921 92.2515 24.6009C92.3187 24.6593 92.3537 24.7206 92.3654 24.7615C92.1522 25.0418 92.0851 25.3893 92.1814 25.7251C92.3187 26.2039 92.7713 26.5923 93.4224 26.7879C93.51 26.8376 93.7027 27.2989 93.4954 27.9939C93.3553 28.4582 92.8939 28.7706 92.3479 28.7706C92.2106 28.7706 92.0763 28.7502 91.942 28.7093C91.7259 28.6451 91.4865 28.61 91.2353 28.6129C89.9038 28.6129 88.1489 29.5532 86.9605 30.9022L78.1216 40.947C77.6603 41.4697 77.0471 41.7588 76.393 41.7588L76.393 41.75ZM76.3638 24.6418C75.079 24.6418 73.8672 24.7907 72.9474 25.0593L67.6155 26.6186C66.5029 26.9427 65.7233 27.6464 65.4722 28.5516C65.2211 29.4539 65.5277 30.4613 66.3131 31.311L73.5577 39.1775C74.3052 39.9922 75.3038 40.4389 76.3667 40.4389C77.4296 40.4389 78.4779 39.9688 79.2283 39.1133L86.1107 31.2935C86.8729 30.4263 87.159 29.4072 86.8991 28.4961C86.6393 27.5851 85.8538 26.8726 84.75 26.5398L79.897 25.0827C78.948 24.7965 77.6924 24.6418 76.3667 24.6418L76.3638 24.6418Z" fill="#333333"/>
<path d="M56.0816 131.128C56.9751 131.128 75.9522 134.524 75.9522 134.524C75.9522 134.524 94.9292 131.128 95.8228 131.128L95.8228 125.183C95.8228 125.183 80.5658 127.111 75.9492 128.676C71.3327 127.108 56.0757 125.183 56.0757 125.183L56.0757 131.128L56.0816 131.128Z" fill="#369978"/>
<path opacity="0.2" d="M72.4014 133.894C72.4014 133.894 69.6274 127.639 62.45 126.065C62.45 126.065 74.0628 127.677 76.0806 128.74" fill="#016677"/>
<path opacity="0.2" d="M79.0591 133.894C79.0591 133.894 81.8331 127.639 89.0105 126.065C89.0105 126.065 77.3977 127.677 75.3799 128.74" fill="#016677"/>
<path d="M97.1426 131.552L92.9261 132.428L92.9261 123.113L97.1426 122.237L97.1426 131.552Z" fill="#369978"/>
<path d="M54.7647 131.552L58.9841 132.428L58.9841 123.113L54.7647 122.237L54.7647 131.552Z" fill="#369978"/>
<path d="M94.2839 122.83C94.2839 122.83 93.3671 132.428 92.9261 132.428C92.4852 132.428 91.7932 120.99 91.7932 120.99C91.7932 120.99 92.7159 123.157 94.2839 122.833L94.2839 122.83Z" fill="white"/>
<path d="M57.6496 122.83C57.6496 122.83 58.5665 132.428 59.0074 132.428C59.4483 132.428 60.1404 120.99 60.1404 120.99C60.1404 120.99 59.2177 123.157 57.6496 122.833L57.6496 122.83Z" fill="white"/>
<path d="M58.8206 80.6183C58.8206 80.6183 55.1676 87.7635 53.4215 86.0174C51.6753 84.2712 54.2099 28.9314 54.2099 28.9314" fill="#2E7C60"/>
<path d="M93.9015 80.6183C93.9015 80.6183 97.5544 87.7635 99.3005 86.0174C101.047 84.2712 98.5121 28.9314 98.5121 28.9314" fill="#2E7C60"/>
<path d="M54.1572 19.3041C54.1572 16.9389 56.0756 16.533 58.4408 16.533L59.054 16.533C61.4221 16.533 63.3376 16.9389 63.3376 19.3041L63.3376 34.5378C63.3376 36.9059 61.4192 37.3088 59.054 37.3088L58.4408 37.3088C56.0756 37.3088 54.1572 36.903 54.1572 34.5378L54.1572 19.3041Z" fill="#030303"/>
<g opacity="0.2">
<path d="M55.4479 28.2919C55.3194 29.8337 55.2464 29.8307 55.2873 28.2831L55.4742 21.208C55.5151 19.6604 56.286 18.3259 57.1853 18.2413C58.0847 18.1566 58.2394 18.2822 57.527 18.5187C56.8145 18.7552 56.1253 20.2123 55.9969 21.754L55.4479 28.2948L55.4479 28.2919Z" fill="#F8F8F8"/>
</g>
<path d="M89.6235 19.3041C89.6235 16.9389 91.5419 16.533 93.9071 16.533L94.5203 16.533C96.8884 16.533 98.804 16.9389 98.804 19.3041L98.804 34.5378C98.804 36.9059 96.8855 37.3088 94.5203 37.3088L93.9071 37.3088C91.5419 37.3088 89.6235 36.903 89.6235 34.5378L89.6235 19.3041Z" fill="#030303"/>
<g opacity="0.2">
<path d="M90.9142 28.2919C90.7857 29.8337 90.7127 29.8307 90.7536 28.2831L90.9405 21.208C90.9814 19.6604 91.7523 18.3259 92.6516 18.2413C93.551 18.1566 93.7057 18.2822 92.9933 18.5187C92.2808 18.7552 91.5917 20.2123 91.4632 21.754L90.9142 28.2948L90.9142 28.2919Z" fill="#F8F8F8"/>
</g>
<path d="M54.1572 99.0143C54.1572 96.6491 56.0756 96.2403 58.4408 96.2403L59.054 96.2403C61.4221 96.2403 63.3376 96.6462 63.3376 99.0143L63.3376 114.248C63.3376 116.616 61.4192 117.019 59.054 117.019L58.4408 117.019C56.0756 117.019 54.1572 116.613 54.1572 114.248L54.1572 99.0143Z" fill="#030303"/>
<g opacity="0.2">
<path d="M55.4479 108.002C55.3194 109.544 55.2464 109.541 55.2873 107.993L55.4742 100.918C55.5151 99.3706 56.286 98.0362 57.1853 97.9515C58.0847 97.8668 58.2394 97.9924 57.527 98.2289C56.8145 98.4654 56.1253 99.9225 55.9969 101.464L55.4479 108.005L55.4479 108.002Z" fill="#F8F8F8"/>
</g>
<path d="M89.6235 99.0143C89.6235 96.6491 91.5419 96.2403 93.9071 96.2403L94.5203 96.2403C96.8884 96.2403 98.804 96.6462 98.804 99.0143L98.804 114.248C98.804 116.616 96.8855 117.019 94.5203 117.019L93.9071 117.019C91.5419 117.019 89.6235 116.613 89.6235 114.248L89.6235 99.0143Z" fill="#030303"/>
<g opacity="0.2">
<path d="M90.9142 108.002C90.7857 109.544 90.7127 109.541 90.7536 107.993L90.9405 100.918C90.9814 99.3706 91.7523 98.0362 92.6516 97.9515C93.551 97.8668 93.7057 97.9924 92.9933 98.2289C92.2808 98.4654 91.5917 99.9225 91.4632 101.464L90.9142 108.005L90.9142 108.002Z" fill="#F8F8F8"/>
</g>
<path d="M65.4605 90.1228C69.2886 92.0384 76.4163 100.071 76.4163 100.071C76.4163 100.071 83.4944 91.9332 87.3722 90.1228C91.1507 88.3592 104.118 84.8347 94.8007 57.0071C85.4829 29.1795 85.6085 32.0645 85.6085 32.0645L67.2213 32.0645C67.2213 32.0645 67.3468 29.1795 58.0291 57.0071C48.7114 84.8347 60.6775 87.7284 65.4576 90.1228L65.4605 90.1228Z" fill="#47C69F"/>
<g opacity="0.5">
<path opacity="0.5" d="M68.5177 92.3042C68.5177 92.3042 58.616 68.0507 70.9063 35.1919L68.5177 92.3042Z" fill="#2E2E2E"/>
<path opacity="0.5" d="M83.3923 92.3042C83.3923 92.3042 93.294 68.0507 81.0037 35.1919L83.3923 92.3042Z" fill="#2E2E2E"/>
</g>
<path d="M78.6327 16.5302C78.6327 16.5302 85.2144 49.0736 84.9282 70.4801C84.8026 79.9234 82.7557 97.4113 82.5367 100.448C81.3453 116.943 81.4037 139.985 75.955 139.985C69.3149 139.985 70.5647 116.943 69.3733 100.448C69.1543 97.4113 67.1074 79.9234 66.9819 70.4801C66.6957 49.0736 73.2774 16.5302 73.2774 16.5302L78.6327 16.5302Z" fill="#369978"/>
<path d="M75.9551 94.3423C78.1188 94.3423 83.9735 92.8326 81.8973 80.8694C79.8212 68.9062 78.3233 63.618 75.9551 63.618C73.587 63.618 72.092 68.9062 70.0129 80.8694C67.9368 92.8326 73.7768 94.3423 75.9551 94.3423Z" fill="#00738E"/>
<path opacity="0.5" d="M69.677 64.865C69.677 64.865 69.8318 58.0847 70.334 54.2128C70.8362 50.3409 71.7152 45.3185 71.7152 45.3185L72.0334 55.8801L69.9719 64.865" fill="#2E2E2E"/>
<path opacity="0.5" d="M82.2329 64.865C82.2329 64.865 82.0782 58.0847 81.5759 54.2128C81.0737 50.3409 80.1948 45.3185 80.1948 45.3185L79.8765 55.8801L81.938 64.865" fill="#2E2E2E"/>
<path d="M70.8568 82.0901L70.8568 87.6031C70.8568 89.9683 72.7753 91.8867 75.1405 91.8867L76.7698 91.8867C79.135 91.8867 81.0535 89.9683 81.0535 87.6031L81.0535 82.1573C78.2765 78.773 78.3612 71.035 78.3992 69.6743C77.8969 69.467 77.3451 69.3502 76.7669 69.3502L75.1376 69.3502C74.5506 69.3502 73.9929 69.4699 73.4848 69.683C73.5228 71.1518 73.5783 78.7263 70.8539 82.093L70.8568 82.0901Z" fill="#030303"/>
<path d="M69.2479 65.9044C68.6931 68.8477 69.0435 68.9412 70.0275 66.1117L71.6861 61.3375C72.6701 58.508 73.2016 53.7601 72.8687 50.7846L72.1504 44.3372C71.8175 41.3618 71.47 41.3764 71.3766 44.3694L71.1605 51.2372C71.0671 54.2302 70.5356 59.0862 69.9808 62.0295L69.2508 65.9073L69.2479 65.9044Z" fill="#00738E"/>
<path d="M82.6623 65.9044C83.2171 68.8477 82.8667 68.9412 81.8827 66.1117L80.2241 61.3375C79.2401 58.508 78.7087 53.7601 79.0415 50.7846L79.7599 44.3372C80.0927 41.3618 80.4402 41.3764 80.5337 44.3694L80.7497 51.2372C80.8432 54.2302 81.3746 59.0862 81.9294 62.0295L82.6594 65.9073L82.6623 65.9044Z" fill="#00738E"/>
<path d="M77.5668 26.0668C78.5187 26.426 78.5187 26.1311 77.5668 25.4157C76.6149 24.7003 75.0556 24.6886 74.1037 25.3894C73.1518 26.0902 73.1518 26.3851 74.1037 26.0405C75.0556 25.696 76.6149 25.7077 77.5668 26.0668Z" fill="#006B84"/>
<path d="M77.5668 24.0317C78.5187 24.3908 78.5187 24.0959 77.5668 23.3805C76.6149 22.6651 75.0556 22.6534 74.1037 23.3542C73.1518 24.055 73.1518 24.35 74.1037 24.0054C75.0556 23.6608 76.6149 23.6725 77.5668 24.0317Z" fill="#006B84"/>
<path d="M77.5668 21.9963C78.5187 22.3554 78.5187 22.0605 77.5668 21.3451C76.6149 20.6297 75.0556 20.618 74.1037 21.3188C73.1518 22.0196 73.1518 22.3146 74.1037 21.97C75.0556 21.6254 76.6149 21.6371 77.5668 21.9963Z" fill="#006B84"/>
<path d="M75.955 27.67C76.2586 27.67 77.7507 59.2732 75.9549 59.2732C74.1591 59.2732 75.6513 27.67 75.955 27.67Z" fill="#F8F8F8"/>
<path d="M75.955 95.3496C76.2587 95.3496 76.8252 136.711 75.955 136.711C75.0849 136.711 75.6514 95.3496 75.955 95.3496Z" fill="#F8F8F8"/>
<path d="M95.6768 60.1753C95.6768 60.1753 100.781 59.6818 98.4858 28.9284L89.355 28.9284" fill="#47C69F"/>
<path d="M57.0188 60.1753C57.0188 60.1753 51.9146 59.6818 54.2097 28.9284L63.3406 28.9284" fill="#47C69F"/>
<path d="M69.6536 32.0674C69.6536 32.0674 60.3504 60.1753 57.01 60.1753C53.6695 60.1753 63.3318 28.9284 63.3318 28.9284C63.3318 28.9284 65.5218 31.8659 69.6536 32.0674Z" fill="#F8F8F8"/>
<path d="M83.0331 32.0674C83.0331 32.0674 92.3362 60.1753 95.6767 60.1753C99.0172 60.1753 89.3549 28.9284 89.3549 28.9284C89.3549 28.9284 87.1649 31.8659 83.0331 32.0674Z" fill="#F8F8F8"/>
<g opacity="0.4">
<path d="M61.1272 82.8755C61.9507 85.1823 61.2762 85.1239 59.6293 82.747C57.9824 80.3702 57.1327 75.8821 57.743 72.7723L59.5066 63.7729C60.1169 60.6631 60.4907 60.7069 60.3388 63.8751L59.9067 72.9271C59.7548 76.0924 60.3038 80.5687 61.1272 82.8755Z" fill="#F8F8F8"/>
</g>
<g opacity="0.4">
<path d="M55.9238 37.4782C55.5325 39.7558 55.2113 39.2506 55.2113 36.3569C55.2113 33.4632 56.4173 31.098 57.8889 31.098C59.3606 31.098 59.6818 31.6031 58.6014 32.2192C57.521 32.8354 56.3151 35.2035 55.9238 37.4782Z" fill="#F8F8F8"/>
</g>
<g opacity="0.4">
<path d="M56.0231 126.115C55.7837 124.646 55.5881 124.69 55.5881 126.214L55.5881 128.133C55.5881 129.657 56.1662 131.02 56.8758 131.164C57.5853 131.307 57.7781 130.831 57.3109 130.104C56.8437 129.377 56.2626 127.581 56.0231 126.112L56.0231 126.115Z" fill="#F8F8F8"/>
</g>
<path d="M61.8718 16.53L90.041 16.53L90.041 8.02699L61.8718 8.02699L61.8718 16.53Z" fill="#027D99"/>
<path d="M62.6253 15.2688L89.355 15.2688L89.355 12.2787L62.6253 12.2787L62.6253 15.2688Z" fill="#F8F8F8"/>
<path opacity="0.5" d="M90.041 6.01512L90.041 16.53L61.8689 16.53L61.8689 6.01512L63.8924 14.9532L88.2569 14.9532L90.041 6.01512Z" fill="#2E2E2E"/>
</svg>
