<svg width="147" height="147" viewBox="0 0 147 147" fill="none" xmlns="http://www.w3.org/2000/svg">
<path d="M59.1441 109.521C59.7644 109.706 60.0584 110.103 59.7997 110.397C59.538 110.694 59.6468 111.217 60.0407 111.564C60.4347 111.911 61.0962 111.802 61.5166 111.326C61.9341 110.85 63.754 110.903 65.5562 111.444L73.1914 113.734C74.9936 114.275 77.9483 114.287 79.7564 113.757L88.0149 111.344C89.823 110.814 91.6781 110.794 92.1397 111.294C92.6013 111.796 93.2951 111.917 93.6802 111.561C94.0654 111.205 94.1448 110.661 93.8596 110.353C93.5715 110.041 93.8037 109.65 94.3682 109.485C94.9356 109.321 95.1591 108.362 94.8651 107.36C94.5711 106.357 93.4597 105.79 92.3955 106.102C91.3312 106.413 89.4172 105.534 88.1413 104.149L78.7803 93.9829C77.5044 92.5981 75.4434 92.6217 74.1998 94.0358L65.3004 104.149C64.0568 105.564 62.1546 106.454 61.0756 106.131C59.9937 105.808 58.8648 106.36 58.5649 107.363C58.265 108.365 58.5266 109.336 59.147 109.524L59.1441 109.521ZM74.2292 96.8758C75.4728 95.4617 77.5338 95.4382 78.8097 96.8229L86.1039 104.743C87.3798 106.128 86.9447 107.692 85.1366 108.221L79.7682 109.791C77.963 110.32 75.0083 110.309 73.2031 109.768L68.3168 108.301C66.5146 107.76 66.056 106.16 67.2996 104.746L74.2292 96.8729L74.2292 96.8758Z" fill="#1A1A1A"/>
<path opacity="0.3" d="M76.5077 93.7184C77.1486 93.7184 77.7543 93.9947 78.2159 94.4975L87.5768 104.664C88.8028 105.996 90.5844 106.925 91.9133 106.925C92.1603 106.925 92.3925 106.893 92.6042 106.831C92.7277 106.795 92.8571 106.775 92.9835 106.775C93.5215 106.775 93.9919 107.104 94.1301 107.572C94.3153 108.201 94.2006 108.654 94.1154 108.765C93.5391 108.945 93.1364 109.306 93.0099 109.765C92.907 110.138 92.9982 110.526 93.2628 110.832C93.2569 110.867 93.2334 110.935 93.1599 111.003C93.1569 111.003 93.1422 111.006 93.1217 111.006C93.0217 111.006 92.8512 110.947 92.6983 110.779C92.322 110.371 91.6546 110.171 90.655 110.171C89.7877 110.171 88.7734 110.326 87.7973 110.612L79.5389 113.025C78.748 113.258 77.6778 113.384 76.5254 113.384C75.3729 113.384 74.2145 113.246 73.409 113.005L65.7738 110.715C64.7683 110.412 63.6952 110.238 62.8338 110.238C61.9077 110.238 61.2873 110.429 60.9434 110.82C60.8258 110.956 60.6846 111.003 60.6023 111.003C60.5759 111.003 60.5523 110.997 60.5435 110.988C60.4759 110.929 60.4406 110.867 60.4289 110.826C60.6435 110.544 60.7111 110.194 60.6141 109.856C60.4759 109.374 60.0202 108.983 59.3646 108.786C59.2764 108.736 59.0823 108.271 59.2911 107.572C59.4322 107.104 59.8967 106.79 60.4465 106.79C60.5847 106.79 60.7199 106.81 60.8552 106.851C61.0727 106.916 61.3138 106.951 61.5666 106.951C62.9073 106.951 64.6742 106.005 65.8708 104.646L74.7702 94.5327C75.2347 94.0065 75.8521 93.7154 76.5107 93.7154L76.5077 93.7184ZM76.5401 110.944C77.8337 110.944 79.0538 110.794 79.9799 110.523L85.3483 108.953C86.4684 108.627 87.2534 107.919 87.5063 107.007C87.7591 106.099 87.4504 105.084 86.6595 104.229L79.3654 96.3085C78.6128 95.4912 77.6073 95.0384 76.5371 95.0384C75.467 95.0384 74.4115 95.5118 73.6559 96.3732L66.7263 104.247C65.959 105.12 65.6709 106.146 65.9325 107.063C66.1942 107.98 66.9851 108.698 68.0964 109.033L72.9827 110.5C73.9382 110.788 75.2024 110.944 76.5371 110.944L76.5401 110.944Z" fill="#333333"/>
<path d="M94.2829 26.2337C93.6625 26.0485 93.3685 25.6516 93.6273 25.3576C93.8889 25.0606 93.7801 24.5373 93.3862 24.1904C92.9922 23.8464 92.3307 23.9523 91.9103 24.4285C91.4899 24.9048 89.6729 24.8519 87.8707 24.311L80.2355 22.0178C78.4333 21.4768 75.4786 21.465 73.6705 21.9942L65.4121 24.408C63.604 24.9372 61.7488 24.9577 61.2872 24.4579C60.8257 23.9552 60.1318 23.8347 59.7467 24.1904C59.3615 24.5461 59.2822 25.0901 59.5673 25.3988C59.8555 25.7104 59.6261 26.1014 59.0587 26.266C58.4913 26.4307 58.2679 27.3891 58.5619 28.3946C58.8559 29.3971 59.9672 29.9646 61.0315 29.6529C62.0957 29.3413 64.0097 30.2203 65.2856 31.6051L74.6466 41.7716C75.9226 43.1563 77.9835 43.1328 79.2271 41.7187L88.1265 31.6051C89.3701 30.1909 91.2723 29.3001 92.3513 29.6235C93.4303 29.9469 94.5622 29.3942 94.862 28.3917C95.1619 27.3891 94.9003 26.416 94.2799 26.2308L94.2829 26.2337ZM79.1977 38.8786C77.9541 40.2928 75.8932 40.3163 74.6172 38.9316L67.3231 31.0112C66.0471 29.6265 66.4822 28.0624 68.2903 27.5332L73.6588 25.9632C75.4639 25.434 78.4186 25.4458 80.2238 25.9868L85.1101 27.4538C86.9123 27.9948 87.3709 29.5941 86.1273 31.0083L79.2007 38.8816L79.1977 38.8786Z" fill="#1A1A1A"/>
<path opacity="0.3" d="M76.9163 42.0361C76.2754 42.0361 75.6698 41.7597 75.2082 41.257L65.8472 31.0905C64.6212 29.7587 62.8396 28.8296 61.5137 28.8296C61.2667 28.8296 61.0344 28.862 60.8228 28.9237C60.6993 28.959 60.5699 28.9796 60.4435 28.9796C59.9055 28.9796 59.4351 28.6503 59.2969 28.1828C59.1117 27.5537 59.2263 27.1009 59.3116 26.9892C59.8878 26.8098 60.2906 26.4482 60.417 25.9896C60.5199 25.6162 60.4288 25.2281 60.1642 24.9224C60.1701 24.8871 60.1936 24.8224 60.2671 24.7518C60.27 24.7518 60.2847 24.7518 60.3053 24.7489C60.4053 24.7489 60.5758 24.8077 60.7287 24.9753C61.105 25.3839 61.7724 25.5839 62.772 25.5839C63.6393 25.5839 64.6536 25.428 65.6297 25.1429L73.8881 22.7291C74.679 22.4969 75.7491 22.3704 76.9016 22.3704C78.0541 22.3704 79.2125 22.5086 80.018 22.7526L87.6532 25.0429C88.6587 25.3457 89.7318 25.5192 90.5932 25.5192C91.5193 25.5192 92.1396 25.3281 92.4836 24.9371C92.6012 24.8018 92.7423 24.7548 92.8247 24.7548C92.8511 24.7548 92.8746 24.7607 92.8835 24.7695C92.9511 24.8283 92.9864 24.89 92.9981 24.9312C92.7835 25.2134 92.7159 25.5633 92.8129 25.9014C92.9511 26.3835 93.4068 26.7746 94.0624 26.9715C94.1506 27.0215 94.3446 27.486 94.1359 28.1858C93.9948 28.6532 93.5303 28.9678 92.9805 28.9678C92.8423 28.9678 92.7071 28.9472 92.5718 28.9061C92.3543 28.8414 92.1132 28.8061 91.8603 28.809C90.5197 28.809 88.7528 29.7557 87.5562 31.114L78.6568 41.2276C78.1923 41.7539 77.5749 42.0449 76.9163 42.0449L76.9163 42.0361ZM76.8869 24.8106C75.5933 24.8106 74.3732 24.9606 73.4471 25.2311L68.0787 26.801C66.9585 27.1274 66.1736 27.8359 65.9207 28.7473C65.6679 29.6558 65.9766 30.6701 66.7674 31.5256L74.0616 39.446C74.8142 40.2662 75.8197 40.716 76.8899 40.716C77.96 40.716 79.0155 40.2427 79.7711 39.3813L86.7006 31.508C87.468 30.6348 87.7561 29.6087 87.4944 28.6914C87.2328 27.7742 86.4419 27.0568 85.3306 26.7216L80.4443 25.2546C79.4888 24.9665 78.2246 24.8106 76.8899 24.8106L76.8869 24.8106Z" fill="#333333"/>
<path d="M56.4656 132.027C57.3652 132.027 76.4723 135.446 76.4723 135.446C76.4723 135.446 95.5794 132.027 96.479 132.027L96.479 126.041C96.479 126.041 81.1175 127.981 76.4694 129.557C71.8212 127.978 56.4597 126.041 56.4597 126.041L56.4597 132.027L56.4656 132.027Z" fill="#E0BB04"/>
<path opacity="0.2" d="M72.8972 134.811C72.8972 134.811 70.1042 128.513 62.8776 126.929C62.8776 126.929 74.57 128.552 76.6016 129.622" fill="#2E2E2E"/>
<path opacity="0.2" d="M79.6004 134.811C79.6004 134.811 82.3934 128.513 89.6199 126.929C89.6199 126.929 77.9275 128.552 75.8959 129.622" fill="#2E2E2E"/>
<path d="M97.8079 132.453L93.5625 133.335L93.5625 123.956L97.8079 123.074L97.8079 132.453Z" fill="#F5D227"/>
<path d="M55.1396 132.453L59.3879 133.335L59.3879 123.956L55.1396 123.074L55.1396 132.453Z" fill="#F5D227"/>
<path d="M94.9297 123.671C94.9297 123.671 94.0065 133.335 93.5626 133.335C93.1186 133.335 92.4219 121.819 92.4219 121.819C92.4219 121.819 93.3509 124 94.9297 123.674L94.9297 123.671Z" fill="#F8F8F8"/>
<path d="M58.0444 123.671C58.0444 123.671 58.9676 133.335 59.4115 133.335C59.8555 133.335 60.5522 121.819 60.5522 121.819C60.5522 121.819 59.6232 124 58.0444 123.674L58.0444 123.671Z" fill="#F8F8F8"/>
<path d="M59.2234 81.1705C59.2234 81.1705 55.5455 88.3647 53.7873 86.6066C52.0292 84.8485 54.5811 29.1296 54.5811 29.1296" fill="#BA9B03"/>
<path d="M94.5446 81.1705C94.5446 81.1705 98.2225 88.3647 99.9807 86.6066C101.739 84.8485 99.1869 29.1296 99.1869 29.1296" fill="#BA9B03"/>
<path d="M54.5281 19.4364C54.5281 17.055 56.4597 16.6464 58.8411 16.6464L59.4585 16.6464C61.8428 16.6464 63.7715 17.055 63.7715 19.4364L63.7715 34.7744C63.7715 37.1587 61.8399 37.5645 59.4585 37.5645L58.8411 37.5645C56.4597 37.5645 54.5281 37.1558 54.5281 34.7744L54.5281 19.4364Z" fill="#030303"/>
<g opacity="0.2">
<path d="M55.8276 28.4857C55.6982 30.038 55.6247 30.035 55.6659 28.4768L55.854 21.3532C55.8952 19.795 56.6714 18.4514 57.5769 18.3662C58.4824 18.2809 58.6382 18.4074 57.9209 18.6455C57.2035 18.8836 56.5097 20.3507 56.3803 21.903L55.8276 28.4886L55.8276 28.4857Z" fill="#F8F8F8"/>
</g>
<path d="M90.2374 19.4364C90.2374 17.055 92.1689 16.6464 94.5503 16.6464L95.1677 16.6464C97.5521 16.6464 99.4807 17.055 99.4807 19.4364L99.4807 34.7744C99.4807 37.1587 97.5491 37.5645 95.1677 37.5645L94.5503 37.5645C92.1689 37.5645 90.2374 37.1558 90.2374 34.7744L90.2374 19.4364Z" fill="#030303"/>
<g opacity="0.2">
<path d="M91.5368 28.4857C91.4075 30.038 91.334 30.035 91.3751 28.4768L91.5633 21.3532C91.6044 19.795 92.3806 18.4514 93.2861 18.3662C94.1916 18.2809 94.3475 18.4074 93.6301 18.6455C92.9127 18.8836 92.2189 20.3507 92.0895 21.903L91.5368 28.4886L91.5368 28.4857Z" fill="#F8F8F8"/>
</g>
<path d="M54.5281 99.6925C54.5281 97.3111 56.4597 96.8995 58.8411 96.8995L59.4585 96.8995C61.8428 96.8995 63.7715 97.3082 63.7715 99.6925L63.7715 115.03C63.7715 117.415 61.8399 117.821 59.4585 117.821L58.8411 117.821C56.4597 117.821 54.5281 117.412 54.5281 115.03L54.5281 99.6925Z" fill="#030303"/>
<g opacity="0.2">
<path d="M55.8276 108.742C55.6982 110.294 55.6247 110.291 55.6659 108.733L55.854 101.609C55.8952 100.051 56.6714 98.7076 57.5769 98.6223C58.4824 98.537 58.6382 98.6635 57.9209 98.9016C57.2035 99.1397 56.5097 100.607 56.3803 102.159L55.8276 108.745L55.8276 108.742Z" fill="#F8F8F8"/>
</g>
<path d="M90.2374 99.6925C90.2374 97.3111 92.1689 96.8995 94.5503 96.8995L95.1677 96.8995C97.5521 96.8995 99.4807 97.3082 99.4807 99.6925L99.4807 115.03C99.4807 117.415 97.5491 117.821 95.1677 117.821L94.5503 117.821C92.1689 117.821 90.2374 117.412 90.2374 115.03L90.2374 99.6925Z" fill="#030303"/>
<g opacity="0.2">
<path d="M91.5368 108.742C91.4075 110.294 91.334 110.291 91.3751 108.733L91.5633 101.609C91.6044 100.051 92.3806 98.7076 93.2861 98.6223C94.1916 98.537 94.3475 98.6635 93.6301 98.9016C92.9127 99.1397 92.2189 100.607 92.0895 102.159L91.5368 108.745L91.5368 108.742Z" fill="#F8F8F8"/>
</g>
<path d="M65.909 90.7403C69.7634 92.6689 76.9399 100.757 76.9399 100.757C76.9399 100.757 84.0665 92.5631 87.9708 90.7403C91.7752 88.9645 104.832 85.4159 95.4502 57.3977C86.0686 29.3795 86.195 32.2842 86.195 32.2842L67.6818 32.2842C67.6818 32.2842 67.8083 29.3795 58.4267 57.3977C49.0452 85.4159 61.0933 88.3295 65.9061 90.7403L65.909 90.7403Z" fill="#E0BB04"/>
<g opacity="0.5">
<path opacity="0.5" d="M68.9869 92.9363C68.9869 92.9363 59.0174 68.5166 71.3919 35.4328L68.9869 92.9363Z" fill="#2E2E2E"/>
<path opacity="0.5" d="M83.9634 92.9363C83.9634 92.9363 93.9329 68.5166 81.5584 35.4328L83.9634 92.9363Z" fill="#2E2E2E"/>
</g>
<path d="M79.1713 16.6434C79.1713 16.6434 85.798 49.4097 85.5099 70.9628C85.3835 80.4708 83.3226 98.0784 83.1021 101.136C81.9025 117.744 81.9613 140.944 76.4753 140.944C69.7897 140.944 71.048 117.744 69.8485 101.136C69.628 98.0784 67.5671 80.4708 67.4407 70.9628C67.1526 49.4097 73.7793 16.6434 73.7793 16.6434L79.1713 16.6434Z" fill="#F5D227"/>
<path d="M76.4754 94.9885C78.6539 94.9885 84.5486 93.4685 82.4583 81.4234C80.368 69.3782 78.8597 64.0538 76.4754 64.0538C74.0911 64.0538 72.5858 69.3782 70.4925 81.4234C68.4021 93.4685 74.2821 94.9885 76.4754 94.9885Z" fill="#E0BB04"/>
<path opacity="0.5" d="M70.1543 65.3091C70.1543 65.3091 70.3101 58.4824 70.8158 54.584C71.3215 50.6855 72.2064 45.6287 72.2064 45.6287L72.5269 56.2627L70.4512 65.3091" fill="#2E2E2E"/>
<path opacity="0.5" d="M82.7964 65.3091C82.7964 65.3091 82.6406 58.4824 82.1349 54.584C81.6292 50.6855 80.7443 45.6287 80.7443 45.6287L80.4238 56.2627L82.4994 65.3091" fill="#2E2E2E"/>
<path d="M71.3422 82.6522L71.3422 88.2029C71.3422 90.5843 73.2737 92.5159 75.6551 92.5159L77.2957 92.5159C79.6771 92.5159 81.6086 90.5843 81.6086 88.2029L81.6086 82.7198C78.8127 79.3123 78.898 71.5213 78.9362 70.1513C78.4305 69.9426 77.8748 69.825 77.2927 69.825L75.6522 69.825C75.0613 69.825 74.4997 69.9455 73.9882 70.1601C74.0264 71.6389 74.0822 79.2653 71.3392 82.6551L71.3422 82.6522Z" fill="#030303"/>
<path d="M69.7222 66.3559C69.1636 69.3194 69.5164 69.4135 70.5072 66.5646L72.1771 61.7577C73.1679 58.9088 73.7029 54.1284 73.3678 51.1325L72.6445 44.641C72.3094 41.6452 71.9595 41.6599 71.8654 44.6734L71.6479 51.5882C71.5538 54.6017 71.0187 59.491 70.4601 62.4545L69.7251 66.3588L69.7222 66.3559Z" fill="#E0BB04"/>
<path d="M83.2284 66.3559C83.787 69.3194 83.4342 69.4135 82.4434 66.5646L80.7735 61.7577C79.7827 58.9088 79.2477 54.1284 79.5828 51.1325L80.3061 44.641C80.6412 41.6452 80.9911 41.6599 81.0852 44.6734L81.3027 51.5882C81.3968 54.6017 81.9319 59.491 82.4905 62.4545L83.2255 66.3588L83.2284 66.3559Z" fill="#E0BB04"/>
<path d="M78.0981 26.2455C79.0565 26.6071 79.0565 26.3102 78.0981 25.5899C77.1396 24.8696 75.5697 24.8578 74.6112 25.5634C73.6528 26.269 73.6528 26.5659 74.6112 26.219C75.5697 25.8721 77.1396 25.8838 78.0981 26.2455Z" fill="#D9BA23"/>
<path d="M78.0981 24.1964C79.0565 24.558 79.0565 24.2611 78.0981 23.5408C77.1396 22.8205 75.5697 22.8087 74.6112 23.5143C73.6528 24.2199 73.6528 24.5169 74.6112 24.1699C75.5697 23.823 77.1396 23.8348 78.0981 24.1964Z" fill="#D9BA23"/>
<path d="M78.0981 22.1471C79.0565 22.5087 79.0565 22.2118 78.0981 21.4915C77.1396 20.7712 75.5697 20.7594 74.6112 21.465C73.6528 22.1706 73.6528 22.4675 74.6112 22.1206C75.5697 21.7737 77.1396 21.7855 78.0981 22.1471Z" fill="#D9BA23"/>
<path d="M76.4754 27.8593C76.7811 27.8593 78.2835 59.679 76.4754 59.679C74.6673 59.679 76.1696 27.8593 76.4754 27.8593Z" fill="#F8F8F8"/>
<path d="M76.4753 96.0028C76.7811 96.0028 77.3514 137.648 76.4753 137.648C75.5992 137.648 76.1695 96.0028 76.4753 96.0028Z" fill="#F8F8F8"/>
<path d="M96.332 60.5874C96.332 60.5874 101.471 60.0905 99.1602 29.1265L89.9669 29.1265" fill="#E0BB04"/>
<path d="M57.4093 60.5874C57.4093 60.5874 52.2702 60.0905 54.581 29.1265L63.7744 29.1265" fill="#E0BB04"/>
<path d="M70.1306 32.287C70.1306 32.287 60.7638 60.5874 57.4004 60.5874C54.037 60.5874 63.7655 29.1265 63.7655 29.1265C63.7655 29.1265 65.9705 32.0841 70.1306 32.287Z" fill="#F8F8F8"/>
<path d="M83.6018 32.287C83.6018 32.287 92.9687 60.5874 96.332 60.5874C99.6954 60.5874 89.9669 29.1265 89.9669 29.1265C89.9669 29.1265 87.7619 32.0841 83.6018 32.287Z" fill="#F8F8F8"/>
<g opacity="0.4">
<path d="M61.546 83.443C62.3751 85.7656 61.6959 85.7068 60.0378 83.3137C58.3796 80.9205 57.5241 76.4017 58.1385 73.2706L59.9143 64.2095C60.5287 61.0784 60.9051 61.1225 60.7522 64.3124L60.3171 73.4264C60.1642 76.6134 60.7169 81.1204 61.546 83.443Z" fill="#F8F8F8"/>
</g>
<g opacity="0.4">
<path d="M56.3068 37.735C55.9129 40.0282 55.5895 39.5196 55.5895 36.606C55.5895 33.6925 56.8037 31.3111 58.2854 31.3111C59.7672 31.3111 60.0906 31.8197 59.0028 32.4401C57.915 33.0604 56.7008 35.4447 56.3068 37.735Z" fill="#F8F8F8"/>
</g>
<g opacity="0.4">
<path d="M56.4069 126.979C56.1658 125.5 55.9688 125.544 55.9688 127.079L55.9688 129.01C55.9688 130.545 56.5509 131.918 57.2653 132.062C57.9798 132.206 58.1738 131.727 57.7034 130.995C57.233 130.263 56.6479 128.454 56.4069 126.976L56.4069 126.979Z" fill="#F8F8F8"/>
</g>
<path d="M62.2958 16.6433L90.658 16.6433L90.658 8.08203L62.2958 8.08203L62.2958 16.6433Z" fill="#F5D227"/>
<path d="M63.0543 15.3733L89.967 15.3733L89.967 12.3627L63.0543 12.3627L63.0543 15.3733Z" fill="#F8F8F8"/>
<path d="M90.658 6.05638L90.658 16.6433L62.2928 16.6433L62.2928 6.05637L64.3303 15.0557L88.8616 15.0557L90.658 6.05638Z" fill="#E0BB04"/>
</svg>
