<svg width="15" height="622" viewBox="0 0 15 622" fill="none" xmlns="http://www.w3.org/2000/svg">
<g clip-path="url(#clip0_584_4448)">
<mask id="path-1-inside-1_584_4448" fill="white">
<path d="M0 0H15V20H0V0Z"/>
</mask>
<path d="M0 0H15V20H0V0Z" fill="#B50000"/>
<path d="M15 20V19H0V20V21H15V20Z" fill="#515151" mask="url(#path-1-inside-1_584_4448)"/>
<mask id="path-3-inside-2_584_4448" fill="white">
<path d="M0 20H15V40H0V20Z"/>
</mask>
<path d="M0 20H15V40H0V20Z" fill="#B50000"/>
<path d="M15 40V39H0V40V41H15V40Z" fill="#515151" mask="url(#path-3-inside-2_584_4448)"/>
<mask id="path-5-inside-3_584_4448" fill="white">
<path d="M0 40H15V60H0V40Z"/>
</mask>
<path d="M0 40H15V60H0V40Z" fill="#B50000"/>
<path d="M15 60V59H0V60V61H15V60Z" fill="#515151" mask="url(#path-5-inside-3_584_4448)"/>
<mask id="path-7-inside-4_584_4448" fill="white">
<path d="M0 60H15V80H0V60Z"/>
</mask>
<path d="M0 60H15V80H0V60Z" fill="white"/>
<path d="M15 80V79H0V80V81H15V80Z" fill="#515151" mask="url(#path-7-inside-4_584_4448)"/>
<mask id="path-9-inside-5_584_4448" fill="white">
<path d="M0 80H15V100H0V80Z"/>
</mask>
<path d="M0 80H15V100H0V80Z" fill="white"/>
<path d="M15 100V99H0V100V101H15V100Z" fill="#515151" mask="url(#path-9-inside-5_584_4448)"/>
<mask id="path-11-inside-6_584_4448" fill="white">
<path d="M0 100H15V120H0V100Z"/>
</mask>
<path d="M0 100H15V120H0V100Z" fill="white"/>
<path d="M15 120V119H0V120V121H15V120Z" fill="#515151" mask="url(#path-11-inside-6_584_4448)"/>
<mask id="path-13-inside-7_584_4448" fill="white">
<path d="M0 120H15V140H0V120Z"/>
</mask>
<path d="M0 120H15V140H0V120Z" fill="#B50000"/>
<path d="M15 140V139H0V140V141H15V140Z" fill="#515151" mask="url(#path-13-inside-7_584_4448)"/>
<mask id="path-15-inside-8_584_4448" fill="white">
<path d="M0 140H15V160H0V140Z"/>
</mask>
<path d="M0 140H15V160H0V140Z" fill="#B50000"/>
<path d="M15 160V159H0V160V161H15V160Z" fill="#515151" mask="url(#path-15-inside-8_584_4448)"/>
<mask id="path-17-inside-9_584_4448" fill="white">
<path d="M0 160H15V180H0V160Z"/>
</mask>
<path d="M0 160H15V180H0V160Z" fill="#B50000"/>
<path d="M15 180V179H0V180V181H15V180Z" fill="#515151" mask="url(#path-17-inside-9_584_4448)"/>
<mask id="path-19-inside-10_584_4448" fill="white">
<path d="M0 180H15V200H0V180Z"/>
</mask>
<path d="M0 180H15V200H0V180Z" fill="white"/>
<path d="M15 200V199H0V200V201H15V200Z" fill="#515151" mask="url(#path-19-inside-10_584_4448)"/>
<mask id="path-21-inside-11_584_4448" fill="white">
<path d="M0 200H15V220H0V200Z"/>
</mask>
<path d="M0 200H15V220H0V200Z" fill="white"/>
<path d="M15 220V219H0V220V221H15V220Z" fill="#515151" mask="url(#path-21-inside-11_584_4448)"/>
<mask id="path-23-inside-12_584_4448" fill="white">
<path d="M0 220H15V240H0V220Z"/>
</mask>
<path d="M0 220H15V240H0V220Z" fill="white"/>
<path d="M15 240V239H0V240V241H15V240Z" fill="#515151" mask="url(#path-23-inside-12_584_4448)"/>
<mask id="path-25-inside-13_584_4448" fill="white">
<path d="M0 240H15V260H0V240Z"/>
</mask>
<path d="M0 240H15V260H0V240Z" fill="#B50000"/>
<path d="M15 260V259H0V260V261H15V260Z" fill="#515151" mask="url(#path-25-inside-13_584_4448)"/>
<mask id="path-27-inside-14_584_4448" fill="white">
<path d="M0 260H15V280H0V260Z"/>
</mask>
<path d="M0 260H15V280H0V260Z" fill="#B50000"/>
<path d="M15 280V279H0V280V281H15V280Z" fill="#515151" mask="url(#path-27-inside-14_584_4448)"/>
<mask id="path-29-inside-15_584_4448" fill="white">
<path d="M0 280H15V300H0V280Z"/>
</mask>
<path d="M0 280H15V300H0V280Z" fill="#B50000"/>
<path d="M15 300V299H0V300V301H15V300Z" fill="#515151" mask="url(#path-29-inside-15_584_4448)"/>
<mask id="path-31-inside-16_584_4448" fill="white">
<path d="M0 300H15V320H0V300Z"/>
</mask>
<path d="M0 300H15V320H0V300Z" fill="white"/>
<path d="M15 320V319H0V320V321H15V320Z" fill="#515151" mask="url(#path-31-inside-16_584_4448)"/>
<mask id="path-33-inside-17_584_4448" fill="white">
<path d="M0 320H15V340H0V320Z"/>
</mask>
<path d="M0 320H15V340H0V320Z" fill="white"/>
<path d="M15 340V339H0V340V341H15V340Z" fill="#515151" mask="url(#path-33-inside-17_584_4448)"/>
<mask id="path-35-inside-18_584_4448" fill="white">
<path d="M0 340H15V360H0V340Z"/>
</mask>
<path d="M0 340H15V360H0V340Z" fill="white"/>
<path d="M15 360V359H0V360V361H15V360Z" fill="#515151" mask="url(#path-35-inside-18_584_4448)"/>
<mask id="path-37-inside-19_584_4448" fill="white">
<path d="M0 360H15V380H0V360Z"/>
</mask>
<path d="M0 360H15V380H0V360Z" fill="#B50000"/>
<path d="M15 380V379H0V380V381H15V380Z" fill="#515151" mask="url(#path-37-inside-19_584_4448)"/>
<mask id="path-39-inside-20_584_4448" fill="white">
<path d="M0 380H15V400H0V380Z"/>
</mask>
<path d="M0 380H15V400H0V380Z" fill="#B50000"/>
<path d="M15 400V399H0V400V401H15V400Z" fill="#515151" mask="url(#path-39-inside-20_584_4448)"/>
<mask id="path-41-inside-21_584_4448" fill="white">
<path d="M0 400H15V420H0V400Z"/>
</mask>
<path d="M0 400H15V420H0V400Z" fill="#B50000"/>
<path d="M15 420V419H0V420V421H15V420Z" fill="#515151" mask="url(#path-41-inside-21_584_4448)"/>
<mask id="path-43-inside-22_584_4448" fill="white">
<path d="M0 420H15V440H0V420Z"/>
</mask>
<path d="M0 420H15V440H0V420Z" fill="white"/>
<path d="M15 440V439H0V440V441H15V440Z" fill="#515151" mask="url(#path-43-inside-22_584_4448)"/>
<mask id="path-45-inside-23_584_4448" fill="white">
<path d="M0 440H15V460H0V440Z"/>
</mask>
<path d="M0 440H15V460H0V440Z" fill="white"/>
<path d="M15 460V459H0V460V461H15V460Z" fill="#515151" mask="url(#path-45-inside-23_584_4448)"/>
<mask id="path-47-inside-24_584_4448" fill="white">
<path d="M0 460H15V480H0V460Z"/>
</mask>
<path d="M0 460H15V480H0V460Z" fill="white"/>
<path d="M15 480V479H0V480V481H15V480Z" fill="#515151" mask="url(#path-47-inside-24_584_4448)"/>
<mask id="path-49-inside-25_584_4448" fill="white">
<path d="M0 480H15V500H0V480Z"/>
</mask>
<path d="M0 480H15V500H0V480Z" fill="#B50000"/>
<path d="M15 500V499H0V500V501H15V500Z" fill="#515151" mask="url(#path-49-inside-25_584_4448)"/>
<mask id="path-51-inside-26_584_4448" fill="white">
<path d="M0 500H15V520H0V500Z"/>
</mask>
<path d="M0 500H15V520H0V500Z" fill="#B50000"/>
<path d="M15 520V519H0V520V521H15V520Z" fill="#515151" mask="url(#path-51-inside-26_584_4448)"/>
<mask id="path-53-inside-27_584_4448" fill="white">
<path d="M0 520H15V540H0V520Z"/>
</mask>
<path d="M0 520H15V540H0V520Z" fill="#B50000"/>
<path d="M15 540V539H0V540V541H15V540Z" fill="#515151" mask="url(#path-53-inside-27_584_4448)"/>
<mask id="path-55-inside-28_584_4448" fill="white">
<path d="M0 540H15V560H0V540Z"/>
</mask>
<path d="M0 540H15V560H0V540Z" fill="white"/>
<path d="M15 560V559H0V560V561H15V560Z" fill="#515151" mask="url(#path-55-inside-28_584_4448)"/>
<mask id="path-57-inside-29_584_4448" fill="white">
<path d="M0 560H15V580H0V560Z"/>
</mask>
<path d="M0 560H15V580H0V560Z" fill="white"/>
<path d="M15 580V579H0V580V581H15V580Z" fill="#515151" mask="url(#path-57-inside-29_584_4448)"/>
<mask id="path-59-inside-30_584_4448" fill="white">
<path d="M0 580H15V600H0V580Z"/>
</mask>
<path d="M0 580H15V600H0V580Z" fill="white"/>
<path d="M15 600V599H0V600V601H15V600Z" fill="#515151" mask="url(#path-59-inside-30_584_4448)"/>
<mask id="path-61-inside-31_584_4448" fill="white">
<path d="M0 600H15V620H0V600Z"/>
</mask>
<path d="M0 600H15V620H0V600Z" fill="#B50000"/>
<path d="M15 620V619H0V620V621H15V620Z" fill="#515151" mask="url(#path-61-inside-31_584_4448)"/>
<mask id="path-63-inside-32_584_4448" fill="white">
<path d="M0 620H15V640H0V620Z"/>
</mask>
<path d="M0 620H15V640H0V620Z" fill="#B50000"/>
<path d="M15 640V639H0V640V641H15V640Z" fill="#515151" mask="url(#path-63-inside-32_584_4448)"/>
</g>
<defs>
<clipPath id="clip0_584_4448">
<rect width="15" height="704" fill="white"/>
</clipPath>
</defs>
</svg>
